<svg xmlns="http://www.w3.org/2000/svg" viewBox="0 0 64 64" fill="none">
<defs>
<linearGradient id="g_educationcrm" x1="0" y1="0" x2="1" y2="1"><stop offset="0" stop-color="#3E7BD6"/><stop offset="1" stop-color="#19335D"/></linearGradient>
<radialGradient id="r_educationcrm" cx="0" cy="0" r="1" gradientUnits="userSpaceOnUse" gradientTransform="translate(19 11) scale(38)"><stop offset="0" stop-color="#fff" stop-opacity=".32"/><stop offset="1" stop-color="#fff" stop-opacity="0"/></radialGradient>
<linearGradient id="s_educationcrm" x1="0" y1="0" x2="0" y2="1"><stop offset="0" stop-color="#fff" stop-opacity=".2"/><stop offset=".55" stop-color="#fff" stop-opacity="0"/></linearGradient>
<linearGradient id="v_educationcrm" x1="0" y1="1" x2="0" y2="0"><stop offset="0" stop-color="#0B1526" stop-opacity=".22"/><stop offset=".45" stop-color="#0B1526" stop-opacity="0"/></linearGradient>
<clipPath id="c_educationcrm"><rect width="64" height="64" rx="14.5"/></clipPath>
<filter id="f_educationcrm" x="-20%" y="-20%" width="140%" height="140%"><feDropShadow dx="0" dy="1" stdDeviation="1.1" flood-color="#0B1526" flood-opacity=".28"/></filter>
</defs>
<g clip-path="url(#c_educationcrm)">
<rect width="64" height="64" fill="url(#g_educationcrm)"/>
<circle cx="19" cy="11" r="38" fill="url(#r_educationcrm)"/>
<circle cx="53" cy="57" r="30" fill="none" stroke="#fff" stroke-opacity=".08" stroke-width="5"/>
<rect width="64" height="64" fill="url(#v_educationcrm)"/>
<rect width="64" height="64" fill="url(#s_educationcrm)"/>
</g>
<rect x=".75" y=".75" width="62.5" height="62.5" rx="13.75" fill="none" stroke="#fff" stroke-opacity=".28" stroke-width="1.5"/>
<g filter="url(#f_educationcrm)" transform="translate(13 13) scale(1.583)" fill="none" stroke-linecap="round" stroke-linejoin="round">
<g stroke="#fff" stroke-width="2.1"><circle cx="9" cy="8" r="3"/><path d="M3.5 19a5.5 5.5 0 0 1 11 0"/></g>
<g stroke="#FFB27A" stroke-width="2.1"><path d="M16 8h5M16 12h5M16 16h3"/></g>
</g>
</svg>